<?xml version="1.0" encoding="UTF-8"?>
<svg version="1.1" xmlns="http://www.w3.org/2000/svg" width="28" height="28">
<path d="M0 0 C9.24 0 18.48 0 28 0 C28 9.24 28 18.48 28 28 C18.76 28 9.52 28 0 28 C0 18.76 0 9.52 0 0 Z " fill="#B7B772" transform="translate(0,0)"/>
<path d="M0 0 C9.24 0 18.48 0 28 0 C28 4.95 28 9.9 28 15 C27.01 15 26.02 15 25 15 C24.34 13.35 23.68 11.7 23 10 C19.39007621 10.65585189 19.39007621 10.65585189 16 12 C16.875 6.25 16.875 6.25 18 4 C17.01 4 16.02 4 15 4 C15 4.99 15 5.98 15 7 C14.34 7 13.68 7 13 7 C13 6.01 13 5.02 13 4 C12.01 4 11.02 4 10 4 C10.350625 4.5775 10.70125 5.155 11.0625 5.75 C12.14917407 8.35801776 11.93065133 9.39417629 11 12 C10.34 11.34 9.68 10.68 9 10 C6.39719432 10.32041397 6.39719432 10.32041397 4 11 C3.67 12.32 3.34 13.64 3 15 C2.01 15 1.02 15 0 15 C0 10.05 0 5.1 0 0 Z " fill="#0895FB" transform="translate(0,0)"/>
<path d="M0 0 C2.875 -0.1875 2.875 -0.1875 6 0 C6.66 0.99 7.32 1.98 8 3 C8.5775 2.649375 9.155 2.29875 9.75 1.9375 C12.43358372 0.81934012 13.30609104 1.07396879 16 2 C16.7425 2.185625 17.485 2.37125 18.25 2.5625 C19.11625 2.7790625 19.11625 2.7790625 20 3 C20.66 2.01 21.32 1.02 22 0 C25.125 -0.1875 25.125 -0.1875 28 0 C28 3.3 28 6.6 28 10 C18.76 10 9.52 10 0 10 C0 6.7 0 3.4 0 0 Z " fill="#0594FC" transform="translate(0,18)"/>
<path d="M0 0 C1.65 0.33 3.3 0.66 5 1 C5.33 2.65 5.66 4.3 6 6 C6.99 6 7.98 6 9 6 C9 6.99 9 7.98 9 9 C7.02 9 5.04 9 3 9 C2.34 10.32 1.68 11.64 1 13 C-0.32 12.67 -1.64 12.34 -3 12 C-3 11.34 -3 10.68 -3 10 C-2.01 9.67 -1.02 9.34 0 9 C1.20882096 6.99983534 1.20882096 6.99983534 2 5 C2.66 5 3.32 5 4 5 C4 4.01 4 3.02 4 2 C2.35 2.33 0.7 2.66 -1 3 C-0.67 2.01 -0.34 1.02 0 0 Z " fill="#EFC342" transform="translate(19,9)"/>
<path d="M0 0 C0.99 0 1.98 0 3 0 C3 0.99 3 1.98 3 3 C3.66 3 4.32 3 5 3 C5 2.01 5 1.02 5 0 C5.99 0 6.98 0 8 0 C7.34 2.97 6.68 5.94 6 9 C4.66666667 9 3.33333333 9 2 9 C1.34 6.03 0.68 3.06 0 0 Z " fill="#DBBE56" transform="translate(10,4)"/>
<path d="M0 0 C-3.20380017 2.13586678 -4.01939967 2.23132175 -7.6875 2.125 C-8.89986328 2.09792969 -8.89986328 2.09792969 -10.13671875 2.0703125 C-11.05904297 2.03550781 -11.05904297 2.03550781 -12 2 C-12 1.34 -12 0.68 -12 0 C-7.74433453 -1.16063604 -4.3164922 -0.76173392 0 0 Z " fill="#FDC731" transform="translate(12,16)"/>
</svg>
